<svg id="1eeced31-3742-451c-a1b8-75c3144cbfd1" data-name="Layer 1" xmlns="http://www.w3.org/2000/svg" xmlns:xlink="http://www.w3.org/1999/xlink" viewBox="0 0 283.46 283.46"><defs><linearGradient id="39fc6906-cc0d-431f-98b3-2cd3b1f508d8" x1="44.93" y1="309.4" x2="238.54" y2="-25.94" gradientUnits="userSpaceOnUse"><stop offset="0" stop-color="#27348b"/><stop offset="1" stop-color="#82368c"/></linearGradient><linearGradient id="4e1a781f-0178-44e5-b0c4-ba221899197c" x1="113.83" y1="190.13" x2="169.63" y2="93.47" gradientUnits="userSpaceOnUse"><stop offset="0" stop-color="#0079b9"/><stop offset="1" stop-color="#0395b9"/></linearGradient></defs><title>Ultimate GDPR Consent</title><rect width="283.46" height="283.46" style="fill:url(#39fc6906-cc0d-431f-98b3-2cd3b1f508d8)"/><circle cx="142.22" cy="141.8" r="39.67" style="fill:#fdfdfd;stroke:#fff;stroke-miterlimit:10;stroke-width:2px"/><polygon points="131.67 139.43 126.59 143.89 138.77 157.46 138.79 157.44 138.81 157.46 160.64 135.28 156.74 130.15 139 144.75 131.67 139.43" style="fill:#41b390;stroke:#fff;stroke-miterlimit:10;stroke-width:2px"/><path d="M141.73,86a55.8,55.8,0,1,0,55.8,55.8A55.79,55.79,0,0,0,141.73,86Zm0,86.63C113,172.63,111,124.05,111,124.05L141.73,111h0l30.76,13.09S170.44,172.63,141.73,172.63Z" transform="translate(0.49)" style="stroke:#fff;stroke-miterlimit:10;stroke-width:4px;fill:url(#4e1a781f-0178-44e5-b0c4-ba221899197c)"/><polygon points="185.96 58.33 182.2 69.92 192.06 62.76 201.92 69.92 198.15 58.33 208.01 51.16 195.82 51.16 192.06 39.57 188.29 51.16 176.1 51.16 185.96 58.33" style="fill:#ffcc07"/><polygon points="222.8 95.17 219.04 106.76 228.9 99.59 238.76 106.76 234.99 95.17 244.85 88 232.66 88 228.9 76.41 225.13 88 212.94 88 222.8 95.17" style="fill:#ffcc07"/><polygon points="258.33 138.33 246.15 138.33 242.38 126.74 238.62 138.33 226.43 138.33 236.29 145.49 232.52 157.08 242.38 149.92 252.24 157.08 248.47 145.49 258.33 138.33" style="fill:#ffcc07"/><polygon points="232.66 188.65 228.9 177.06 225.13 188.65 212.94 188.65 222.8 195.82 219.04 207.41 228.9 200.24 238.76 207.41 234.99 195.82 244.85 188.65 232.66 188.65" style="fill:#ffcc07"/><polygon points="141.73 26.09 137.97 37.68 125.78 37.68 135.64 44.84 131.87 56.43 141.73 49.27 151.59 56.43 147.83 44.84 157.69 37.68 145.5 37.68 141.73 26.09" style="fill:#ffcc07"/><polygon points="91.41 39.57 87.64 51.16 75.45 51.16 85.31 58.33 81.55 69.92 91.41 62.76 101.27 69.92 97.5 58.33 107.36 51.16 95.17 51.16 91.41 39.57" style="fill:#ffcc07"/><polygon points="54.57 76.41 50.8 88 38.61 88 48.47 95.17 44.71 106.76 54.57 99.59 64.43 106.76 60.66 95.17 70.52 88 58.33 88 54.57 76.41" style="fill:#ffcc07"/><polygon points="41.08 149.92 50.94 157.08 47.18 145.49 57.04 138.33 44.85 138.33 41.08 126.74 37.32 138.33 25.13 138.33 34.99 145.49 31.22 157.08 41.08 149.92" style="fill:#ffcc07"/><polygon points="58.33 188.65 54.57 177.06 50.8 188.65 38.61 188.65 48.47 195.82 44.71 207.41 54.57 200.24 64.43 207.41 60.66 195.82 70.52 188.65 58.33 188.65" style="fill:#ffcc07"/><polygon points="95.19 225.55 91.41 213.9 87.64 225.49 75.45 225.49 75.53 225.55 75.44 225.55 85.3 232.71 81.55 244.25 81.55 244.25 81.53 244.31 91.39 237.14 101.25 244.31 97.48 232.71 107.34 225.55 95.19 225.55" style="fill:#ffcc07"/><polygon points="195.84 225.27 192.07 213.68 188.31 225.27 176.12 225.27 185.98 232.43 182.21 244.02 191.91 236.98 201.92 244.25 201.81 243.93 201.93 244.02 198.22 232.6 208.01 225.49 207.72 225.49 208.03 225.27 195.84 225.27" style="fill:#ffcc07"/><polygon points="145.48 238.75 141.72 227.16 137.95 238.75 125.76 238.75 135.62 245.91 131.85 257.5 141.72 250.34 151.57 257.5 147.81 245.91 157.67 238.75 145.48 238.75" style="fill:#ffcc07"/></svg>